<svg width="448" height="424" viewBox="0 0 448 424" fill="none" xmlns="http://www.w3.org/2000/svg">
<path d="M358.483 122.163C358.483 118.381 352.782 110.816 352.782 110.816L280.57 8.68876C280.57 8.68876 274.236 0.493842 281.203 0.500008C316.33 0.531092 336.025 0.556972 371.151 0.500008C374.952 0.493844 376.852 4.27611 376.852 4.27611L440.83 97.5782C440.83 97.5782 447.164 105.956 447.164 122.163C447.164 138.37 440.83 146.748 440.83 146.748L325.544 310.646L320.476 316.95C320.476 316.95 318.576 319.465 315.409 319.471C281.766 319.536 262.904 319.471 229.261 319.471C220.757 319.471 225.463 313.792 225.463 313.792L226.728 311.907L352.148 134.14C352.148 134.14 358.483 125.945 358.483 122.163Z" fill="white" stroke="white"/>
<path d="M205.384 122.338C205.384 118.551 199.702 110.975 199.702 110.975L127.721 8.70056C127.721 8.70056 121.407 0.493833 128.353 0.500008C163.367 0.531137 182.998 0.557054 218.013 0.500008C221.801 0.493835 223.695 4.28155 223.695 4.28155L287.468 97.7181C287.468 97.7181 293.782 106.108 293.782 122.338C293.782 138.569 287.468 146.958 287.468 146.958L172.551 311.093L167.5 317.406L138.458 358.472H311.465C317.779 358.472 317.147 365.416 317.147 365.416V415.293C317.147 415.293 317.779 423.5 311.465 423.5H140.984H12.6636C-5.33691 423.5 1.96496 411.504 1.96496 411.504L5.85976 405.822L72.7905 314.243L74.0514 312.355L199.07 134.333C199.07 134.333 205.384 126.126 205.384 122.338Z" fill="white" stroke="white"/>
</svg>
