<svg width="512" height="512" viewBox="0 0 512 512" fill="none" xmlns="http://www.w3.org/2000/svg">
  <rect width="512" height="512" rx="112" fill="#293E70"/>
  <g transform="translate(116.57 113.73) scale(0.685)" fill="#FFFFFF">
    <path d="M340.857 118.638C340.857 114.974 335.222 107.644 335.222 107.644L299.539 58.1691L281.697 33.4314C281.697 33.4314 260.38 1.34376 290.771 0.759619C321.162 0.175476 324.218 0.759619 341.759 0.759619C359.3 0.759619 374.818 27.0184 374.818 27.0184L390.626 49.6183L414.893 86.9912C414.893 86.9912 428.5 106.241 428.5 118.638C428.5 131.035 414.893 151.485 414.893 151.485L364.348 223.556L313 296.5C313 296.5 304 309.545 286.003 309.545H277.78H270.963H257.328H247.865C214.494 309.545 234.755 280.335 234.755 280.335L334.596 130.243C334.596 130.243 340.857 122.303 340.857 118.638Z"/>
    <path d="M189.549 118.808C189.549 115.138 183.933 107.798 183.933 107.798L148.364 58.2516L130.579 33.4783L128.356 30.3817C128.356 30.3817 105.443 1.08643 135.238 1.08643L185.294 1.08643C207.939 1.08643 218.141 20.5758 218.141 20.5758L220.24 23.8062L224.439 30.2671L241.232 56.1109L274.818 107.798C274.818 107.798 279.266 114.291 279.266 118.808C279.266 123.325 275.313 130.591 275.313 130.591L157.1 301.691L152.108 307.808L130.033 338.41C130.033 338.41 119.74 351.611 135.234 351.611C159.287 351.617 238.798 351.611 295.532 351.611C305.415 351.611 311.622 359.206 311.622 359.206L326.704 377.659L343 399C353 415 331 415 331 415C265.202 415 126.08 414.962 126.08 414.962H88.0532H33.3328C-21.4891 414.962 8.90075 374.395 8.90075 374.395L58.5068 304.744L59.7529 302.915L183.309 130.429C183.309 130.429 189.549 122.478 189.549 118.808Z"/>
  </g>
</svg>
